<svg xmlns="http://www.w3.org/2000/svg" xmlns:xlink="http://www.w3.org/1999/xlink" width="50" height="50" preserveAspectRatio="xMidYMid meet" viewBox="0 0 24 24" style="-ms-transform: rotate(360deg); -webkit-transform: rotate(360deg); transform: rotate(360deg);"><path d="M20 4H6c-1.103 0-2 .897-2 2v5h2V8l6.4 4.8a1.001 1.001 0 0 0 1.2 0L20 8v9h-8v2h8c1.103 0 2-.897 2-2V6c0-1.103-.897-2-2-2zm-7 6.75L6.666 6h12.668L13 10.75z" fill="black"/><path d="M2 12h7v2H2zm2 3h6v2H4zm3 3h4v2H7z" fill="black"/><rect x="0" y="0" width="50" height="50" fill="rgba(0, 0, 0, 0)" /></svg>